<?xml version="1.0" encoding="utf-8"?>
<svg xmlns="http://www.w3.org/2000/svg" viewBox="0 0 50 50" fill="#ecb211"><path d="M 27 2 C 26.398438 2 25.800781 2.226563 25.34375 2.6875 L 12.59375 15.40625 L 9.75 18.28125 L 8.75 13.625 C 8.144531 10.890625 5.339844 9.265625 2.65625 10.0625 L 2 10.25 L 4.3125 26.46875 C 4.058594 28.96875 4.898438 31.554688 6.8125 33.46875 L 10.4375 37.09375 C 11.898438 38.554688 13.78125 39.382813 15.6875 39.5625 L 8.15625 26.4375 C 7.664063 25.578125 7.878906 24.488281 8.65625 23.875 L 9.1875 23.46875 C 10.402344 22.511719 11.863281 22 13.40625 22 C 15.675781 22 17.789063 23.121094 19.0625 25 L 19.6875 25.90625 L 19.84375 25.5625 L 26.90625 9.15625 L 19.90625 16.15625 L 19.21875 15.46875 L 28.65625 6 C 29.574219 5.082031 29.574219 3.605469 28.65625 2.6875 C 28.199219 2.230469 27.601563 2 27 2 Z M 33.65625 3.4375 C 33.03125 3.4375 32.414063 3.679688 31.9375 4.15625 L 29.34375 6.71875 C 29.847656 6.519531 30.40625 6.40625 30.96875 6.40625 C 31.5625 6.40625 32.140625 6.511719 32.6875 6.75 C 33.121094 6.9375 33.5 7.195313 33.84375 7.5 C 34.347656 6.617188 35.140625 5.960938 36.0625 5.59375 C 36 5.066406 35.777344 4.558594 35.375 4.15625 C 34.898438 3.679688 34.28125 3.4375 33.65625 3.4375 Z M 37.71875 7.28125 C 36.769531 7.273438 35.871094 7.820313 35.46875 8.75 L 28.71875 24.34375 L 27.8125 23.96875 L 33.125 11.6875 C 33.640625 10.496094 33.066406 9.109375 31.875 8.59375 C 30.683594 8.078125 29.328125 8.621094 28.8125 9.8125 L 21.65625 26.34375 L 20.0625 30.0625 L 17.40625 26.125 C 15.835938 23.804688 12.640625 23.296875 10.4375 25.03125 L 9.90625 25.4375 L 18.03125 39.65625 C 18.71875 42.074219 20.453125 44.175781 22.9375 45.25 L 27.65625 47.3125 C 31.980469 49.179688 37.007813 47.164063 38.875 42.84375 L 44 30.9375 L 47.8125 22.15625 C 48.339844 20.929688 47.757813 19.496094 46.53125 18.96875 C 45.304688 18.441406 43.902344 18.992188 43.375 20.21875 L 39.5625 29.03125 L 38.71875 28.65625 L 44.71875 14.78125 C 45.257813 13.535156 44.683594 12.066406 43.4375 11.53125 C 42.191406 10.996094 40.722656 11.566406 40.1875 12.8125 L 34.1875 26.71875 L 33.21875 26.28125 L 39.9375 10.6875 C 40.472656 9.449219 39.925781 8.003906 38.6875 7.46875 C 38.378906 7.335938 38.035156 7.285156 37.71875 7.28125 Z" fill="#ecb211"/></svg>
